M48
; DRILL file KiCad 10.0.0 date 2026-04-12T20:33:38
; FORMAT={-:-/ absolute / inch / decimal}
; #@! TF.CreationDate,2026-04-12T20:33:38+10:00
; #@! TF.GenerationSoftware,Kicad,Pcbnew,10.0.0
; #@! TF.FileFunction,Plated,1,4,PTH
FMAT,2
INCH
; #@! TA.AperFunction,Plated,PTH,ViaDrill
T1C0.0118
; #@! TA.AperFunction,Plated,PTH,ComponentDrill
T2C0.0118
; #@! TA.AperFunction,Plated,PTH,ViaDrill
T3C0.0157
; #@! TA.AperFunction,Plated,PTH,ComponentDrill
T4C0.0236
; #@! TA.AperFunction,Plated,PTH,ComponentDrill
T5C0.0236
; #@! TA.AperFunction,Plated,PTH,ComponentDrill
T6C0.0315
; #@! TA.AperFunction,Plated,PTH,ComponentDrill
T7C0.0394
; #@! TA.AperFunction,Plated,PTH,ComponentDrill
T8C0.1063
; #@! TA.AperFunction,Plated,PTH,ComponentDrill
T9C0.1063
%
G90
G05
T1
X3.4193Y-4.9705
X3.4193Y-5.0531
X3.4252Y-2.5787
X3.4409Y-2.3071
X3.4449Y-2.2283
X3.4449Y-2.6909
X3.4449Y-2.7736
X3.4449Y-2.8661
X3.4449Y-2.9488
X3.4469Y-3.315
X3.4469Y-3.3976
X3.4469Y-3.4902
X3.4469Y-3.5728
X3.4469Y-4.0256
X3.4469Y-4.1083
X3.4469Y-4.2008
X3.4469Y-4.2835
X3.4488Y-3.0472
X3.4488Y-3.1299
X3.4488Y-3.2224
X3.4508Y-3.6713
X3.4508Y-3.7539
X3.4508Y-3.8465
X3.4508Y-3.9291
X3.4508Y-4.3819
X3.4508Y-4.4646
X3.4508Y-4.5571
X3.4508Y-4.6398
X3.5118Y-2.2264
X3.5276Y-5.0512
X3.5728Y-2.6909
X3.5728Y-2.7736
X3.5728Y-2.8661
X3.5728Y-2.9488
X3.5748Y-3.315
X3.5748Y-3.3976
X3.5748Y-3.4902
X3.5748Y-3.5728
X3.5748Y-4.0256
X3.5748Y-4.1083
X3.5748Y-4.2008
X3.5748Y-4.2835
X3.5768Y-2.2283
X3.5768Y-3.0472
X3.5768Y-3.1299
X3.5768Y-3.2224
X3.5787Y-3.6713
X3.5787Y-3.7539
X3.5787Y-3.8465
X3.5787Y-3.9291
X3.5787Y-4.3819
X3.5787Y-4.4646
X3.5787Y-4.5571
X3.5787Y-4.6398
X3.6496Y-4.9685
X3.6496Y-5.0512
X3.6575Y-2.2244
X3.6575Y-2.3071
X3.6713Y-2.6909
X3.6713Y-2.7736
X3.6713Y-2.8661
X3.6713Y-2.9488
X3.6732Y-3.315
X3.6732Y-3.3976
X3.6732Y-3.4902
X3.6732Y-3.5728
X3.6732Y-4.0256
X3.6732Y-4.1083
X3.6732Y-4.2008
X3.6732Y-4.2835
X3.6752Y-3.0472
X3.6752Y-3.1299
X3.6752Y-3.2224
X3.6772Y-3.6713
X3.6772Y-3.7539
X3.6772Y-3.8465
X3.6772Y-3.9291
X3.6772Y-4.3819
X3.6772Y-4.4646
X3.6772Y-4.5571
X3.6772Y-4.6398
X3.6811Y-2.5827
X3.7008Y-4.7047
X3.7244Y-2.2224
X3.7244Y-2.3051
X3.7776Y-4.9685
X3.7776Y-5.0512
X3.7894Y-2.2244
X3.7894Y-2.3071
X3.7913Y-2.6004
X3.7933Y-2.6909
X3.7933Y-2.7736
X3.7933Y-2.8661
X3.7933Y-2.9488
X3.7953Y-3.315
X3.7953Y-3.3976
X3.7953Y-3.4902
X3.7953Y-3.5728
X3.7953Y-4.0256
X3.7953Y-4.1083
X3.7953Y-4.2008
X3.7953Y-4.2835
X3.7972Y-3.0472
X3.7972Y-3.1299
X3.7972Y-3.2224
X3.7992Y-3.6713
X3.7992Y-3.7539
X3.7992Y-3.8465
X3.7992Y-3.9291
X3.7992Y-4.3819
X3.7992Y-4.4646
X3.7992Y-4.5571
X3.7992Y-4.6398
X3.876Y-2.2244
X3.876Y-2.3071
X3.876Y-4.9685
X3.876Y-5.0512
X3.9154Y-2.6909
X3.9154Y-2.7736
X3.9154Y-2.8661
X3.9154Y-2.9488
X3.9173Y-3.315
X3.9173Y-3.3976
X3.9173Y-3.4902
X3.9173Y-3.5728
X3.9173Y-4.0256
X3.9173Y-4.1083
X3.9173Y-4.2008
X3.9173Y-4.2835
X3.9193Y-3.0472
X3.9193Y-3.1299
X3.9193Y-3.2224
X3.9213Y-3.6713
X3.9213Y-3.7539
X3.9213Y-3.8465
X3.9213Y-3.9291
X3.9213Y-4.3819
X3.9213Y-4.4646
X3.9213Y-4.5571
X3.9213Y-4.6398
X3.9528Y-2.2205
X3.9528Y-2.2835
X3.998Y-4.9685
X3.998Y-5.0512
X4.0197Y-2.2185
X4.0197Y-2.2835
X4.0433Y-2.6909
X4.0433Y-2.7736
X4.0433Y-2.8661
X4.0433Y-2.9488
X4.0453Y-3.315
X4.0453Y-3.3976
X4.0453Y-3.4902
X4.0453Y-3.5728
X4.0453Y-4.0256
X4.0453Y-4.1083
X4.0453Y-4.2008
X4.0453Y-4.2835
X4.0472Y-3.0472
X4.0472Y-3.1299
X4.0472Y-3.2224
X4.0492Y-3.6713
X4.0492Y-3.7539
X4.0492Y-3.8465
X4.0492Y-3.9291
X4.0492Y-4.3819
X4.0492Y-4.4646
X4.0492Y-4.5571
X4.0492Y-4.6398
X4.0846Y-2.2205
X4.0846Y-2.2834
X4.1201Y-4.9685
X4.1201Y-5.0512
X4.128Y-2.6929
X4.128Y-2.7756
X4.128Y-2.8681
X4.128Y-2.9508
X4.1299Y-3.3169
X4.1299Y-3.3996
X4.1299Y-3.4921
X4.1299Y-3.5748
X4.1299Y-4.0276
X4.1299Y-4.1102
X4.1299Y-4.2028
X4.1299Y-4.2854
X4.1319Y-3.0492
X4.1319Y-3.1319
X4.1319Y-3.2244
X4.1339Y-3.6732
X4.1339Y-3.7559
X4.1339Y-3.8484
X4.1339Y-3.9311
X4.1339Y-4.3839
X4.1339Y-4.4665
X4.1339Y-4.5591
X4.1339Y-4.6417
X4.1713Y-2.2205
X4.1732Y-2.2834
X4.248Y-4.9685
X4.248Y-5.0512
X4.25Y-2.6929
X4.25Y-2.7756
X4.25Y-2.8681
X4.25Y-2.9508
X4.252Y-3.3169
X4.252Y-3.3996
X4.252Y-3.4921
X4.252Y-3.5748
X4.252Y-4.0276
X4.252Y-4.1102
X4.252Y-4.2028
X4.252Y-4.2854
X4.2539Y-3.0492
X4.2539Y-3.1319
X4.2539Y-3.2244
X4.2559Y-2.2244
X4.2559Y-2.2834
X4.2559Y-3.6732
X4.2559Y-3.7559
X4.2559Y-3.8484
X4.2559Y-3.9311
X4.2559Y-4.3839
X4.2559Y-4.4665
X4.2559Y-4.5591
X4.2559Y-4.6417
X4.3327Y-2.2205
X4.3327Y-2.2834
X4.3327Y-4.9705
X4.3327Y-5.0531
X4.372Y-2.6929
X4.372Y-2.7756
X4.372Y-2.8681
X4.372Y-2.9508
X4.374Y-3.3169
X4.374Y-3.3996
X4.374Y-3.4921
X4.374Y-3.5748
X4.374Y-4.0276
X4.374Y-4.1102
X4.374Y-4.2028
X4.374Y-4.2854
X4.376Y-3.0492
X4.376Y-3.1319
X4.376Y-3.2244
X4.378Y-3.6732
X4.378Y-3.7559
X4.378Y-3.8484
X4.378Y-3.9311
X4.378Y-4.3839
X4.378Y-4.4665
X4.378Y-4.5591
X4.378Y-4.6417
X4.3996Y-2.2185
X4.3996Y-2.2834
X4.4547Y-4.9705
X4.4547Y-5.0531
X4.4646Y-2.2205
X4.4646Y-2.2834
X4.5Y-2.6929
X4.5Y-2.7756
X4.5Y-2.8681
X4.5Y-2.9508
X4.502Y-3.3169
X4.502Y-3.3996
X4.502Y-3.4921
X4.502Y-3.5748
X4.502Y-4.0276
X4.502Y-4.1102
X4.502Y-4.2028
X4.502Y-4.2854
X4.5039Y-3.0492
X4.5039Y-3.1319
X4.5039Y-3.2244
X4.5059Y-3.6732
X4.5059Y-3.7559
X4.5059Y-3.8484
X4.5059Y-3.9311
X4.5059Y-4.3839
X4.5059Y-4.4665
X4.5059Y-4.5591
X4.5059Y-4.6417
X4.5512Y-2.2205
X4.5512Y-2.2834
X4.5768Y-4.9705
X4.5768Y-5.0531
X4.5945Y-2.7756
X4.5945Y-2.8681
X4.5945Y-2.9508
X4.5965Y-3.3169
X4.5965Y-3.3996
X4.5965Y-3.4921
X4.5965Y-3.5748
X4.5965Y-4.0276
X4.5965Y-4.1102
X4.5965Y-4.2028
X4.5965Y-4.2854
X4.5984Y-3.0492
X4.5984Y-3.1319
X4.5984Y-3.2244
X4.6004Y-3.6732
X4.6004Y-3.7559
X4.6004Y-3.8484
X4.6004Y-3.9311
X4.6004Y-4.3839
X4.6004Y-4.4665
X4.6004Y-4.5591
X4.6004Y-4.6417
X4.6895Y-4.3856
X4.6895Y-4.4683
X4.6895Y-4.5608
X4.6895Y-4.6435
X4.6929Y-4.311
X4.7047Y-4.9705
X4.7047Y-5.0531
X4.7244Y-4.2559
X4.7264Y-2.7421
X4.7264Y-2.8346
X4.7264Y-2.9173
X4.7283Y-3.2835
X4.7283Y-3.3661
X4.7283Y-3.4587
X4.7283Y-3.5413
X4.7283Y-3.9941
X4.7283Y-4.0768
X4.7283Y-4.1594
X4.7303Y-3.0157
X4.7303Y-3.0984
X4.7303Y-3.1909
X4.7323Y-3.6398
X4.7323Y-3.7224
X4.7323Y-3.815
X4.7323Y-3.8976
X4.7992Y-4.9705
X4.7992Y-5.0531
X4.8174Y-4.3856
X4.8174Y-4.4683
X4.8174Y-4.5608
X4.8174Y-4.6435
X4.8635Y-2.6917
X4.9119Y-4.3856
X4.9119Y-4.4683
X4.9119Y-4.5608
X4.9119Y-4.6435
X4.9213Y-4.9705
X4.9213Y-5.0531
X4.9945Y-4.3818
X5.0433Y-4.9705
X5.0433Y-5.0531
X5.089Y-4.3818
X5.0984Y-3.0906
X5.0984Y-3.2087
X5.1713Y-4.9705
X5.1713Y-5.0531
X5.1772Y-4.5968
X5.1811Y-4.3839
X5.1969Y-2.7165
X5.2165Y-2.6378
X5.2362Y-3.0906
X5.2362Y-3.2087
X5.2736Y-4.9685
X5.2736Y-5.0512
X5.2756Y-4.3839
X5.3543Y-3.8791
X5.374Y-3.0906
X5.374Y-3.2087
X5.3937Y-3.6024
X5.3937Y-3.7205
X5.3957Y-4.9685
X5.3957Y-5.0512
X5.4606Y-2.685
X5.4823Y-4.3799
X5.5039Y-3.1004
X5.5039Y-3.2186
X5.5118Y-3.6024
X5.5118Y-3.7205
X5.5177Y-4.9685
X5.5177Y-5.0512
X5.5315Y-4.4291
X5.6102Y-3.7992
X5.6102Y-3.9173
X5.6102Y-4.5079
X5.6102Y-4.626
X5.6299Y-2.7165
X5.6417Y-3.6299
X5.6457Y-3.3701
X5.6457Y-4.9685
X5.6457Y-5.0512
X5.6772Y-3.3701
X5.6772Y-3.6299
X5.7007Y-3.1647
X5.7087Y-3.7992
X5.7087Y-3.9173
X5.7179Y-3.2416
X5.748Y-4.2913
X5.748Y-4.4094
X5.748Y-4.5079
X5.748Y-4.626
X5.748Y-4.7244
X5.748Y-4.8425
X5.748Y-4.9665
X5.748Y-5.0492
X5.8071Y-2.9921
X5.8071Y-3.0315
X5.8071Y-3.0709
X5.8071Y-3.622
X5.8262Y-2.7606
X5.8425Y-4.2638
X5.8465Y-2.9331
X5.852Y-4.5176
X5.8543Y-4.3386
X5.8583Y-4.6043
X5.8602Y-4.7224
X5.8602Y-4.8406
X5.8661Y-4.4311
X5.8675Y-2.4783
X5.8701Y-4.9665
X5.8701Y-5.0492
X5.9055Y-2.815
X5.9409Y-4.1358
X5.9783Y-4.502
X5.9803Y-4.2638
X5.9803Y-4.7244
X5.9803Y-4.8425
X5.9823Y-4.4252
X5.9843Y-4.3425
X5.9921Y-4.9665
X5.9921Y-5.0492
X5.9941Y-4.6004
X5.998Y-2.8179
X6.0394Y-2.7942
X6.0433Y-2.6772
X6.0436Y-2.7443
X6.1024Y-2.8531
X6.1024Y-2.9146
X6.1083Y-4.7323
X6.1083Y-4.8504
X6.1181Y-4.0807
X6.1201Y-4.9665
X6.1201Y-5.0492
X6.122Y-4.6083
X6.1355Y-2.9974
X6.1605Y-2.9661
X6.1614Y-2.7953
X6.1969Y-4.128
X6.2077Y-3.0226
X6.2205Y-2.9528
X6.2402Y-4.6063
X6.2768Y-2.8759
X6.2795Y-2.815
X6.2795Y-3.4646
X6.2795Y-4.0807
X6.3311Y-3.5132
X6.3465Y-4.435
X6.3504Y-4.1358
X6.3524Y-4.2795
X6.3602Y-4.748
X6.3602Y-4.8661
X6.3622Y-4.6102
X6.3642Y-4.998
X6.3858Y-3.1398
X6.3904Y-3.2551
X6.3976Y-3.5236
X6.4075Y-3.3563
X6.4075Y-3.4154
X6.4507Y-3.2881
X6.4508Y-4.0807
X6.4508Y-4.3563
X6.4528Y-4.2205
X6.4547Y-4.5
X6.4614Y-2.2394
X6.4646Y-3.7283
X6.4665Y-3.7776
X6.4744Y-4.6161
X6.4764Y-3.5236
X6.4764Y-4.7441
X6.4764Y-4.8622
X6.4783Y-2.8661
X6.4803Y-3.0669
X6.4803Y-4.9941
X6.4823Y-3.1378
X6.4961Y-3.3563
X6.5256Y-3.7303
X6.5256Y-3.7776
X6.5354Y-2.3425
X6.5413Y-4.1378
X6.5512Y-4.2874
X6.5531Y-2.7913
X6.5531Y-4.4331
X6.5546Y-2.2764
X6.5591Y-2.8701
X6.563Y-2.9921
X6.565Y-3.0709
X6.5689Y-3.1457
X6.5866Y-3.7303
X6.5866Y-3.7776
X6.5945Y-2.7362
X6.6063Y-4.6201
X6.6142Y-2.4311
X6.6142Y-2.4902
X6.6142Y-3.2874
X6.6142Y-3.3465
X6.6142Y-3.435
X6.6142Y-3.4941
X6.6181Y-4.7382
X6.6181Y-4.8563
X6.6201Y-4.0827
X6.622Y-4.9882
X6.6358Y-4.2303
X6.6457Y-4.3602
X6.6476Y-4.4941
X6.6575Y-2.872
X6.6732Y-3.1496
X6.6929Y-2.461
X6.6929Y-3.3071
X6.6929Y-3.466
X6.7283Y-4.628
X6.75Y-4.7421
X6.75Y-4.8602
X6.7539Y-4.4311
X6.7539Y-4.9921
X6.7559Y-2.8701
X6.7559Y-3.1732
X6.7559Y-4.2776
X6.7717Y-2.4311
X6.7717Y-2.4902
X6.7717Y-3.2874
X6.7717Y-3.3465
X6.7717Y-3.435
X6.7717Y-3.4941
X6.8369Y-2.8723
X6.8583Y-4.4882
X6.8622Y-4.3543
X6.872Y-4.626
X6.872Y-4.75
X6.872Y-4.8681
X6.876Y-5.0
X6.8996Y-4.1988
X6.9035Y-4.0709
X6.9409Y-4.4213
X6.9429Y-4.2795
X7.0039Y-4.6299
X7.0512Y-2.315
X7.126Y-4.6378
X7.1634Y-4.0827
X7.1634Y-4.2047
X7.1654Y-2.3091
X7.1654Y-4.4744
X7.1654Y-4.7835
X7.1654Y-4.8976
X7.1654Y-5.0157
X7.1693Y-4.3189
X7.2441Y-2.311
X7.2598Y-2.9291
X7.3012Y-4.7795
X7.3012Y-4.8937
X7.3012Y-5.0118
X7.3071Y-4.3169
X7.3071Y-4.435
X7.3071Y-4.5492
X7.3071Y-4.6673
X7.3465Y-3.3465
X7.378Y-2.2323
X7.4094Y-2.8661
X7.4094Y-2.9291
X7.4291Y-3.7402
X7.4311Y-3.9272
X7.4331Y-3.8366
X7.4331Y-4.7835
X7.4331Y-5.0157
X7.435Y-4.8976
X7.439Y-4.439
X7.439Y-4.6713
X7.4409Y-4.3209
X7.4409Y-4.5531
X7.4685Y-3.2303
X7.4705Y-3.0118
X7.502Y-2.2343
X7.5118Y-2.4843
X7.5138Y-2.3661
X7.5335Y-3.7362
X7.561Y-4.3287
X7.561Y-4.4469
X7.561Y-4.561
X7.561Y-4.6791
X7.5748Y-5.0374
X7.6358Y-2.2382
X7.6594Y-3.7441
X7.6929Y-4.4508
X7.6929Y-4.6831
X7.6949Y-4.3327
X7.6949Y-4.565
X7.7343Y-5.0433
X7.7421Y-3.9094
X7.7441Y-3.7913
X7.752Y-3.1299
X7.7539Y-3.0118
X7.7539Y-3.6437
X7.7559Y-3.372
X7.7559Y-3.5256
X7.7579Y-3.2539
X7.7598Y-2.2402
X7.7618Y-2.6988
X7.7638Y-2.5807
X7.7638Y-2.8937
X7.8169Y-4.4528
X7.8169Y-4.685
X7.8189Y-4.3346
X7.8189Y-4.5669
X7.8661Y-3.9114
X7.8681Y-3.7933
X7.8681Y-4.7972
X7.8681Y-4.9232
X7.874Y-5.0433
X7.876Y-3.1319
X7.878Y-2.4134
X7.878Y-3.0138
X7.878Y-3.6457
X7.8799Y-2.2953
X7.8799Y-3.374
X7.8799Y-3.5276
X7.8819Y-3.2559
X7.8858Y-2.7008
X7.8878Y-2.5827
X7.8878Y-2.8957
T2
X5.315Y-4.1142
X5.3543Y-4.1142
X5.3937Y-4.1142
T3
X6.8819Y-2.6535
X6.8819Y-2.7165
X6.8819Y-2.7795
X6.8819Y-2.9606
X6.8819Y-3.0236
X6.8819Y-3.0866
X6.8819Y-3.7638
X6.8819Y-3.8268
X6.8819Y-3.8898
X6.9134Y-2.685
X6.9134Y-2.748
X6.9134Y-2.9921
X6.9134Y-3.0551
X6.9134Y-3.7953
X6.9134Y-3.8583
X6.9193Y-2.3031
X6.9193Y-2.3425
X6.9449Y-2.6535
X6.9449Y-2.7165
X6.9449Y-2.7795
X6.9449Y-2.9606
X6.9449Y-3.0236
X6.9449Y-3.0866
X6.9449Y-3.7638
X6.9449Y-3.8268
X6.9449Y-3.8898
X6.9764Y-2.748
X6.9764Y-3.0551
X6.9764Y-3.8583
X6.9783Y-2.3031
X6.9783Y-2.3425
X6.9843Y-2.685
X6.9843Y-2.9921
X6.9843Y-3.7953
X7.0157Y-2.6535
X7.0157Y-2.7165
X7.0157Y-2.7795
X7.0157Y-2.9606
X7.0157Y-3.0236
X7.0157Y-3.0866
X7.0157Y-3.7638
X7.0157Y-3.8268
X7.0157Y-3.8898
X7.1339Y-3.5197
X7.1339Y-3.5827
X7.1339Y-3.6457
X7.1354Y-2.4055
X7.1354Y-2.4685
X7.1354Y-2.5315
X7.136Y-3.2794
X7.136Y-3.3424
X7.136Y-3.4054
X7.1654Y-2.7756
X7.1654Y-3.5512
X7.1654Y-3.6142
X7.1669Y-2.437
X7.1669Y-2.5
X7.1675Y-3.3109
X7.1675Y-3.3739
X7.1969Y-3.5197
X7.1969Y-3.5827
X7.1969Y-3.6457
X7.1984Y-2.4055
X7.1984Y-2.4685
X7.1984Y-2.5315
X7.199Y-3.2794
X7.199Y-3.3424
X7.199Y-3.4054
X7.2244Y-2.6181
X7.2244Y-2.7067
X7.2283Y-3.6142
X7.2299Y-2.5
X7.2305Y-3.3739
X7.2343Y-3.002
X7.2362Y-3.5512
X7.2378Y-2.437
X7.2383Y-3.3109
X7.2594Y-3.7456
X7.2677Y-3.5197
X7.2677Y-3.5827
X7.2677Y-3.6457
X7.2693Y-2.4055
X7.2693Y-2.4685
X7.2693Y-2.5315
X7.2698Y-3.2794
X7.2698Y-3.3424
X7.2698Y-3.4054
X7.2736Y-4.0157
X7.2736Y-4.1043
X7.2736Y-4.1831
X7.2933Y-3.1004
X7.313Y-2.6476
X7.3228Y-2.7264
X7.3228Y-3.002
X7.3524Y-4.0157
X7.4016Y-2.7854
X7.4016Y-3.002
X7.4016Y-3.189
X7.4016Y-3.4646
X7.4508Y-4.0157
X7.4646Y-3.1693
X7.4764Y-3.0827
X7.5098Y-2.6673
X7.5098Y-2.7854
X7.5197Y-3.5039
X7.5197Y-3.6417
X7.5492Y-4.0157
X7.5787Y-2.7264
X7.6378Y-2.6673
X7.6378Y-2.7854
X7.6378Y-3.5039
X7.6378Y-3.6417
X7.6476Y-4.0157
X7.7461Y-4.0157
X7.7461Y-4.0945
X7.7461Y-4.1831
X7.8445Y-4.0157
X7.8445Y-4.0945
X7.8445Y-4.1831
T6
X5.8898Y-2.3506
X5.9685Y-2.3506
X6.0472Y-2.3506
X6.126Y-2.3506
X6.2047Y-2.3506
X6.2835Y-2.3506
T7
X3.8189Y-2.4016
X3.8189Y-2.5
X3.8189Y-4.7638
X3.8189Y-4.8606
X3.9189Y-2.4016
X3.9189Y-2.5
X3.9189Y-4.7638
X3.9189Y-4.8606
X4.0189Y-2.4016
X4.0189Y-2.5
X4.0189Y-4.7638
X4.0189Y-4.8606
X4.1189Y-2.4016
X4.1189Y-2.5
X4.1189Y-4.7638
X4.1189Y-4.8606
X4.2189Y-2.4016
X4.2189Y-2.5
X4.2189Y-4.7638
X4.2189Y-4.8606
X4.3189Y-2.4016
X4.3189Y-2.5
X4.3189Y-4.7638
X4.3189Y-4.8606
X4.4189Y-2.4016
X4.4189Y-2.5
X4.4189Y-4.7638
X4.4189Y-4.8606
X4.5189Y-2.4016
X4.5189Y-2.5
X4.5189Y-4.7638
X4.5189Y-4.8606
X4.6189Y-2.4016
X4.6189Y-2.5
X4.6189Y-4.7638
X4.6189Y-4.8606
X4.7189Y-2.4016
X4.7189Y-2.5
X4.7189Y-4.7638
X4.7189Y-4.8606
X4.8189Y-2.4016
X4.8189Y-2.5
X4.8189Y-4.7638
X4.8189Y-4.8606
X4.9189Y-2.4016
X4.9189Y-2.5
X4.9189Y-4.7638
X4.9189Y-4.8606
X5.0189Y-2.4016
X5.0189Y-2.5
X5.0189Y-4.7638
X5.0189Y-4.8606
X5.1189Y-2.4016
X5.1189Y-2.5
X5.1189Y-4.7638
X5.1189Y-4.8606
X5.2189Y-2.4016
X5.2189Y-2.5
X5.2189Y-4.7638
X5.2189Y-4.8606
X5.3189Y-2.4016
X5.3189Y-2.5
X5.3189Y-4.7638
X5.3189Y-4.8606
X5.4189Y-2.4016
X5.4189Y-2.5
X5.4189Y-4.7638
X5.4189Y-4.8606
X5.5189Y-2.4016
X5.5189Y-2.5
X5.5189Y-4.7638
X5.5189Y-4.8606
X5.6189Y-2.4016
X5.6189Y-2.5
X5.6189Y-4.7638
X5.6189Y-4.8606
T8
X7.5888Y-3.8513
X7.5888Y-4.1347
T9
X7.5819Y-2.9045
X7.5819Y-3.1211
X7.5819Y-3.3376
T4
G00X7.8004Y-2.7844
M15
G01X7.8358Y-2.7844
M16
G05
G00X7.8004Y-3.4577
M15
G01X7.8358Y-3.4577
M16
G05
T5
G00X7.8033Y-3.7273
M15
G01X7.8467Y-3.7273
M16
G05
G00X7.8033Y-4.2588
M15
G01X7.8467Y-4.2588
M16
G05
M30
